<mxfile><diagram id="li1y926E_Jcj10B5jOFO" name="Page-1"><mxGraphModel dx="1202" dy="808" grid="1" gridSize="10" guides="1" tooltips="1" connect="1" arrows="1" fold="1" page="1" pageScale="1" pageWidth="1654" pageHeight="2336" math="0" shadow="0"><root><object label="" id="0"><mxCell/></object><mxCell id="1" parent="0"/><mxCell id="2" value="Exe_1" style="text;html=1;align=center;verticalAlign=middle;resizable=0;points=[];autosize=1;strokeColor=none;fillColor=none;" vertex="1" parent="1"><mxGeometry x="40" width="60" height="30" as="geometry"/></mxCell><mxCell id="112" style="edgeStyle=elbowEdgeStyle;shape=connector;rounded=1;html=1;labelBackgroundColor=default;strokeColor=default;fontFamily=Helvetica;fontSize=16;fontColor=default;startArrow=none;startFill=0;endArrow=classic;endFill=1;entryX=0.25;entryY=1;entryDx=0;entryDy=0;elbow=vertical;" edge="1" parent="1" source="108" target="95"><mxGeometry relative="1" as="geometry"/></mxCell><mxCell id="80" style="html=1;entryX=0;entryY=0.5;entryDx=0;entryDy=0;movable=1;resizable=1;rotatable=1;deletable=1;editable=1;connectable=1;startArrow=none;startFill=0;endArrow=ERone;endFill=0;strokeWidth=1;rounded=0;elbow=vertical;" edge="1" parent="1" source="81" target="83"><mxGeometry relative="1" as="geometry"/></mxCell><mxCell id="8" style="edgeStyle=none;html=1;entryX=0;entryY=0.5;entryDx=0;entryDy=0;" edge="1" parent="1" source="3" target="4"><mxGeometry relative="1" as="geometry"/></mxCell><mxCell id="3" value="&lt;font style=&quot;font-size: 20px;&quot;&gt;Autor&lt;/font&gt;" style="rounded=0;whiteSpace=wrap;html=1;" vertex="1" parent="1"><mxGeometry x="40" y="40" width="120" height="60" as="geometry"/></mxCell><mxCell id="9" style="edgeStyle=none;html=1;entryX=0;entryY=0.5;entryDx=0;entryDy=0;" edge="1" parent="1" source="4" target="5"><mxGeometry relative="1" as="geometry"/></mxCell><mxCell id="4" value="Escreve" style="rhombus;whiteSpace=wrap;html=1;" vertex="1" parent="1"><mxGeometry x="250" y="35" width="150" height="70" as="geometry"/></mxCell><mxCell id="10" style="edgeStyle=none;html=1;entryX=0.5;entryY=0;entryDx=0;entryDy=0;" edge="1" parent="1" source="5" target="6"><mxGeometry relative="1" as="geometry"><mxPoint x="550" y="150" as="targetPoint"/></mxGeometry></mxCell><mxCell id="5" value="&lt;span style=&quot;font-size: 20px;&quot;&gt;Livro&lt;/span&gt;" style="rounded=0;whiteSpace=wrap;html=1;" vertex="1" parent="1"><mxGeometry x="490" y="40" width="120" height="60" as="geometry"/></mxCell><mxCell id="11" style="edgeStyle=none;html=1;entryX=1;entryY=0.5;entryDx=0;entryDy=0;" edge="1" parent="1" source="6" target="7"><mxGeometry relative="1" as="geometry"/></mxCell><mxCell id="6" value="Pertence" style="rhombus;whiteSpace=wrap;html=1;" vertex="1" parent="1"><mxGeometry x="475" y="160" width="150" height="70" as="geometry"/></mxCell><mxCell id="7" value="&lt;font style=&quot;font-size: 20px;&quot;&gt;Editora&lt;/font&gt;" style="rounded=0;whiteSpace=wrap;html=1;" vertex="1" parent="1"><mxGeometry x="265" y="165" width="120" height="60" as="geometry"/></mxCell><mxCell id="12" value="Exe_2" style="text;html=1;align=center;verticalAlign=middle;resizable=0;points=[];autosize=1;strokeColor=none;fillColor=none;" vertex="1" parent="1"><mxGeometry x="40" y="280" width="60" height="30" as="geometry"/></mxCell><mxCell id="13" style="edgeStyle=none;html=1;entryX=0;entryY=0.5;entryDx=0;entryDy=0;" edge="1" parent="1" source="14" target="16"><mxGeometry relative="1" as="geometry"/></mxCell><mxCell id="14" value="&lt;font style=&quot;font-size: 20px;&quot;&gt;Autor&lt;/font&gt;" style="rounded=0;whiteSpace=wrap;html=1;" vertex="1" parent="1"><mxGeometry x="40" y="320" width="120" height="60" as="geometry"/></mxCell><mxCell id="15" style="edgeStyle=none;html=1;entryX=0;entryY=0.5;entryDx=0;entryDy=0;" edge="1" parent="1" source="16" target="18"><mxGeometry relative="1" as="geometry"/></mxCell><mxCell id="16" value="Escreve" style="rhombus;whiteSpace=wrap;html=1;" vertex="1" parent="1"><mxGeometry x="250" y="315" width="150" height="70" as="geometry"/></mxCell><mxCell id="17" style="edgeStyle=none;html=1;entryX=0.5;entryY=0;entryDx=0;entryDy=0;" edge="1" parent="1" source="18" target="20"><mxGeometry relative="1" as="geometry"><mxPoint x="550" y="430" as="targetPoint"/></mxGeometry></mxCell><mxCell id="18" value="&lt;span style=&quot;font-size: 20px;&quot;&gt;Livro&lt;/span&gt;" style="rounded=0;whiteSpace=wrap;html=1;" vertex="1" parent="1"><mxGeometry x="490" y="320" width="120" height="60" as="geometry"/></mxCell><mxCell id="19" style="edgeStyle=none;html=1;entryX=1;entryY=0.5;entryDx=0;entryDy=0;" edge="1" parent="1" source="20" target="21"><mxGeometry relative="1" as="geometry"/></mxCell><mxCell id="20" value="Pertence" style="rhombus;whiteSpace=wrap;html=1;" vertex="1" parent="1"><mxGeometry x="475" y="440" width="150" height="70" as="geometry"/></mxCell><mxCell id="21" value="&lt;font style=&quot;font-size: 20px;&quot;&gt;Editora&lt;/font&gt;" style="rounded=0;whiteSpace=wrap;html=1;" vertex="1" parent="1"><mxGeometry x="265" y="445" width="120" height="60" as="geometry"/></mxCell><mxCell id="22" value="Exe_5" style="text;html=1;align=center;verticalAlign=middle;resizable=0;points=[];autosize=1;strokeColor=none;fillColor=none;" vertex="1" parent="1"><mxGeometry x="40" y="600" width="60" height="30" as="geometry"/></mxCell><mxCell id="23" style="edgeStyle=none;html=1;entryX=0;entryY=0.5;entryDx=0;entryDy=0;" edge="1" parent="1" source="24" target="26"><mxGeometry relative="1" as="geometry"/></mxCell><mxCell id="24" value="&lt;font style=&quot;font-size: 20px;&quot;&gt;Cliente&lt;/font&gt;" style="rounded=0;whiteSpace=wrap;html=1;strokeWidth=1;" vertex="1" parent="1"><mxGeometry x="140" y="650" width="70" height="30" as="geometry"/></mxCell><mxCell id="25" style="edgeStyle=none;html=1;entryX=0;entryY=0.5;entryDx=0;entryDy=0;" edge="1" parent="1" source="26" target="28"><mxGeometry relative="1" as="geometry"/></mxCell><mxCell id="26" value="Reserva" style="rhombus;whiteSpace=wrap;html=1;" vertex="1" parent="1"><mxGeometry x="285" y="637.5" width="100" height="55" as="geometry"/></mxCell><mxCell id="27" style="edgeStyle=none;html=1;entryX=0.5;entryY=0;entryDx=0;entryDy=0;" edge="1" parent="1" source="28" target="30"><mxGeometry relative="1" as="geometry"><mxPoint x="550" y="750" as="targetPoint"/></mxGeometry></mxCell><mxCell id="28" value="&lt;span style=&quot;font-size: 20px;&quot;&gt;Viagem&lt;/span&gt;" style="rounded=0;whiteSpace=wrap;html=1;" vertex="1" parent="1"><mxGeometry x="487.5" y="645" width="70" height="40" as="geometry"/></mxCell><mxCell id="29" style="edgeStyle=none;html=1;entryX=1;entryY=0.5;entryDx=0;entryDy=0;" edge="1" parent="1" source="30" target="31"><mxGeometry relative="1" as="geometry"/></mxCell><mxCell id="30" value="Tem" style="rhombus;whiteSpace=wrap;html=1;" vertex="1" parent="1"><mxGeometry x="475" y="760" width="95" height="50" as="geometry"/></mxCell><mxCell id="31" value="&lt;font style=&quot;font-size: 20px;&quot;&gt;Destino&lt;/font&gt;" style="rounded=0;whiteSpace=wrap;html=1;" vertex="1" parent="1"><mxGeometry x="265" y="765" width="75" height="35" as="geometry"/></mxCell><mxCell id="39" style="edgeStyle=none;html=1;fontSize=8;" edge="1" parent="1" source="32" target="24"><mxGeometry relative="1" as="geometry"/></mxCell><mxCell id="32" value="&lt;font style=&quot;font-size: 15px;&quot;&gt;Nome&lt;/font&gt;" style="ellipse;whiteSpace=wrap;html=1;strokeWidth=1;fontSize=20;" vertex="1" parent="1"><mxGeometry x="40" y="637.5" width="70" height="40" as="geometry"/></mxCell><mxCell id="38" style="edgeStyle=none;html=1;fontSize=8;" edge="1" parent="1" source="33" target="24"><mxGeometry relative="1" as="geometry"/></mxCell><mxCell id="33" value="&lt;font style=&quot;font-size: 13px;&quot;&gt;Contactos&lt;/font&gt;" style="ellipse;whiteSpace=wrap;html=1;strokeWidth=1;fontSize=20;" vertex="1" parent="1"><mxGeometry x="40" y="692.5" width="70" height="40" as="geometry"/></mxCell><mxCell id="37" style="edgeStyle=none;html=1;entryX=0.5;entryY=1;entryDx=0;entryDy=0;fontSize=8;" edge="1" parent="1" source="34" target="24"><mxGeometry relative="1" as="geometry"/></mxCell><mxCell id="34" value="&lt;font style=&quot;font-size: 15px;&quot;&gt;Morada&lt;/font&gt;" style="ellipse;whiteSpace=wrap;html=1;strokeWidth=1;fontSize=20;" vertex="1" parent="1"><mxGeometry x="120" y="700" width="70" height="40" as="geometry"/></mxCell><mxCell id="40" style="edgeStyle=none;html=1;fontSize=8;" edge="1" parent="1" source="35" target="28"><mxGeometry relative="1" as="geometry"/></mxCell><mxCell id="35" value="&lt;font style=&quot;font-size: 15px;&quot;&gt;Roteiro&lt;/font&gt;" style="ellipse;whiteSpace=wrap;html=1;strokeWidth=1;fontSize=20;" vertex="1" parent="1"><mxGeometry x="440" y="580" width="70" height="40" as="geometry"/></mxCell><mxCell id="41" style="edgeStyle=none;html=1;entryX=0.75;entryY=0;entryDx=0;entryDy=0;fontSize=8;" edge="1" parent="1" source="36" target="28"><mxGeometry relative="1" as="geometry"/></mxCell><mxCell id="36" value="&lt;p style=&quot;line-height: 60%;&quot;&gt;&lt;font style=&quot;font-size: 8px;&quot;&gt;Comprovativo de pagamento&amp;nbsp;&lt;/font&gt;&lt;/p&gt;" style="ellipse;whiteSpace=wrap;html=1;strokeWidth=1;fontSize=20;" vertex="1" parent="1"><mxGeometry x="520" y="580" width="70" height="40" as="geometry"/></mxCell><mxCell id="42" value="Table" style="shape=table;startSize=30;container=1;collapsible=0;childLayout=tableLayout;fontStyle=1;align=center;strokeWidth=1;fontSize=8;fillColor=#fff2cc;strokeColor=#181716;" vertex="1" parent="1"><mxGeometry x="610" y="580" width="210" height="220" as="geometry"/></mxCell><mxCell id="43" value="" style="shape=tableRow;horizontal=0;startSize=0;swimlaneHead=0;swimlaneBody=0;top=0;left=0;bottom=0;right=0;collapsible=0;dropTarget=0;fillColor=none;points=[[0,0.5],[1,0.5]];portConstraint=eastwest;strokeWidth=1;fontSize=8;" vertex="1" parent="42"><mxGeometry y="30" width="210" height="64" as="geometry"/></mxCell><mxCell id="44" value="Nome" style="shape=partialRectangle;html=1;whiteSpace=wrap;connectable=0;fillColor=#dae8fc;top=0;left=0;bottom=0;right=0;overflow=hidden;strokeWidth=3;fontSize=8;strokeColor=#14161a;perimeterSpacing=2;" vertex="1" parent="43"><mxGeometry width="70" height="64" as="geometry"><mxRectangle width="70" height="64" as="alternateBounds"/></mxGeometry></mxCell><mxCell id="45" value="Morada" style="shape=partialRectangle;html=1;whiteSpace=wrap;connectable=0;fillColor=#d5e8d4;top=0;left=0;bottom=0;right=0;overflow=hidden;strokeWidth=3;fontSize=8;strokeColor=#000000;perimeterSpacing=2;" vertex="1" parent="43"><mxGeometry x="70" width="70" height="64" as="geometry"><mxRectangle width="70" height="64" as="alternateBounds"/></mxGeometry></mxCell><mxCell id="46" value="Contactos" style="shape=partialRectangle;html=1;whiteSpace=wrap;connectable=0;fillColor=#dae8fc;top=0;left=0;bottom=0;right=0;overflow=hidden;strokeWidth=3;fontSize=8;strokeColor=#14161a;perimeterSpacing=2;" vertex="1" parent="43"><mxGeometry x="140" width="70" height="64" as="geometry"><mxRectangle width="70" height="64" as="alternateBounds"/></mxGeometry></mxCell><mxCell id="47" value="" style="shape=tableRow;horizontal=0;startSize=0;swimlaneHead=0;swimlaneBody=0;top=0;left=0;bottom=0;right=0;collapsible=0;dropTarget=0;fillColor=none;points=[[0,0.5],[1,0.5]];portConstraint=eastwest;strokeWidth=1;fontSize=8;" vertex="1" parent="42"><mxGeometry y="94" width="210" height="62" as="geometry"/></mxCell><mxCell id="48" value="" style="shape=partialRectangle;html=1;whiteSpace=wrap;connectable=0;fillColor=#dae8fc;top=0;left=0;bottom=0;right=0;overflow=hidden;strokeWidth=3;fontSize=8;strokeColor=#14161a;perimeterSpacing=2;" vertex="1" parent="47"><mxGeometry width="70" height="62" as="geometry"><mxRectangle width="70" height="62" as="alternateBounds"/></mxGeometry></mxCell><mxCell id="49" value="" style="shape=partialRectangle;html=1;whiteSpace=wrap;connectable=0;fillColor=#d5e8d4;top=0;left=0;bottom=0;right=0;overflow=hidden;strokeWidth=3;fontSize=8;strokeColor=#000000;perimeterSpacing=2;" vertex="1" parent="47"><mxGeometry x="70" width="70" height="62" as="geometry"><mxRectangle width="70" height="62" as="alternateBounds"/></mxGeometry></mxCell><mxCell id="50" value="" style="shape=partialRectangle;html=1;whiteSpace=wrap;connectable=0;fillColor=#dae8fc;top=0;left=0;bottom=0;right=0;overflow=hidden;strokeWidth=3;fontSize=8;strokeColor=#14161a;perimeterSpacing=2;" vertex="1" parent="47"><mxGeometry x="140" width="70" height="62" as="geometry"><mxRectangle width="70" height="62" as="alternateBounds"/></mxGeometry></mxCell><mxCell id="51" value="" style="shape=tableRow;horizontal=0;startSize=0;swimlaneHead=0;swimlaneBody=0;top=0;left=0;bottom=0;right=0;collapsible=0;dropTarget=0;fillColor=none;points=[[0,0.5],[1,0.5]];portConstraint=eastwest;strokeWidth=1;fontSize=8;" vertex="1" parent="42"><mxGeometry y="156" width="210" height="64" as="geometry"/></mxCell><mxCell id="52" value="" style="shape=partialRectangle;html=1;whiteSpace=wrap;connectable=0;fillColor=#dae8fc;top=0;left=0;bottom=0;right=0;overflow=hidden;strokeWidth=3;fontSize=8;strokeColor=#14161a;perimeterSpacing=2;" vertex="1" parent="51"><mxGeometry width="70" height="64" as="geometry"><mxRectangle width="70" height="64" as="alternateBounds"/></mxGeometry></mxCell><mxCell id="53" value="" style="shape=partialRectangle;html=1;whiteSpace=wrap;connectable=0;fillColor=#d5e8d4;top=0;left=0;bottom=0;right=0;overflow=hidden;strokeWidth=3;fontSize=8;strokeColor=#000000;perimeterSpacing=2;" vertex="1" parent="51"><mxGeometry x="70" width="70" height="64" as="geometry"><mxRectangle width="70" height="64" as="alternateBounds"/></mxGeometry></mxCell><mxCell id="54" value="" style="shape=partialRectangle;html=1;whiteSpace=wrap;connectable=0;fillColor=#dae8fc;top=0;left=0;bottom=0;right=0;overflow=hidden;strokeWidth=3;fontSize=8;strokeColor=#14161a;perimeterSpacing=2;" vertex="1" parent="51"><mxGeometry x="140" width="70" height="64" as="geometry"><mxRectangle width="70" height="64" as="alternateBounds"/></mxGeometry></mxCell><mxCell id="78" style="edgeStyle=none;html=1;entryX=0.5;entryY=1;entryDx=0;entryDy=0;fontSize=8;" edge="1" parent="1" source="73" target="31"><mxGeometry relative="1" as="geometry"/></mxCell><mxCell id="73" value="&lt;font style=&quot;font-size: 15px;&quot;&gt;123&lt;/font&gt;" style="ellipse;whiteSpace=wrap;html=1;strokeWidth=1;fontSize=20;" vertex="1" parent="1"><mxGeometry x="290" y="820" width="70" height="40" as="geometry"/></mxCell><mxCell id="76" style="edgeStyle=none;html=1;entryX=0;entryY=0.5;entryDx=0;entryDy=0;fontSize=8;" edge="1" parent="1" source="74" target="31"><mxGeometry relative="1" as="geometry"/></mxCell><mxCell id="74" value="&lt;font style=&quot;font-size: 15px;&quot;&gt;Hotel&lt;/font&gt;" style="ellipse;whiteSpace=wrap;html=1;strokeWidth=1;fontSize=20;" vertex="1" parent="1"><mxGeometry x="160" y="760" width="70" height="40" as="geometry"/></mxCell><mxCell id="77" style="edgeStyle=none;html=1;entryX=0;entryY=1;entryDx=0;entryDy=0;fontSize=8;" edge="1" parent="1" source="75" target="31"><mxGeometry relative="1" as="geometry"/></mxCell><mxCell id="75" value="&lt;span style=&quot;font-size: 15px;&quot;&gt;123&lt;/span&gt;" style="ellipse;whiteSpace=wrap;html=1;strokeWidth=1;fontSize=20;" vertex="1" parent="1"><mxGeometry x="195" y="810" width="70" height="40" as="geometry"/></mxCell><mxCell id="79" value="Exe_2" style="text;html=1;align=center;verticalAlign=middle;resizable=0;points=[];autosize=1;strokeColor=none;fillColor=none;" vertex="1" parent="1"><mxGeometry x="10" y="880" width="60" height="30" as="geometry"/></mxCell><mxCell id="81" value="&lt;font style=&quot;font-size: 20px;&quot;&gt;Autor&lt;/font&gt;" style="rounded=0;whiteSpace=wrap;html=1;" vertex="1" parent="1"><mxGeometry x="60" y="940" width="70" height="40" as="geometry"/></mxCell><mxCell id="83" value="Escreve" style="rhombus;whiteSpace=wrap;html=1;" vertex="1" parent="1"><mxGeometry x="200" y="937.5" width="110" height="45" as="geometry"/></mxCell><mxCell id="90" value="&lt;span style=&quot;&quot; data-teams=&quot;true&quot;&gt;&lt;span style=&quot;&quot; dir=&quot;ltr&quot; class=&quot;ui-provider a b c d e f g h i j k l m n o p q r s t u v w x y z ab ac ae af ag ah ai aj ak&quot;&gt;&lt;font style=&quot;font-size: 20px;&quot;&gt;1. Faça um Diagrama E-R para as encomendas online da Pizzaria Ital. A pizzaria pretende guardar os dados das&amp;nbsp;encomendas feitas por cada cliente. Cada encomenda possui vários produtos, cada produto tem uma categoria&amp;nbsp;(exemplo: pizza, refrigerante, etc…) e cada produto pode estar em várias encomendas. Pretende ainda saber que&amp;nbsp;entregador entregou cada encomenda e o pagamento associado a mesma.&lt;/font&gt;&lt;/span&gt;&lt;/span&gt;" style="text;whiteSpace=wrap;html=1;fontSize=11;fontFamily=Helvetica;fontColor=default;" vertex="1" parent="1"><mxGeometry x="10" y="1050" width="910" height="130" as="geometry"/></mxCell><mxCell id="91" value="" style="endArrow=none;html=1;rounded=1;labelBackgroundColor=default;strokeColor=default;fontFamily=Helvetica;fontSize=11;fontColor=default;shape=connector;strokeWidth=4;" edge="1" parent="1"><mxGeometry width="50" height="50" relative="1" as="geometry"><mxPoint x="10" y="1020" as="sourcePoint"/><mxPoint x="710" y="1020" as="targetPoint"/><Array as="points"><mxPoint x="124.57" y="1020"/></Array></mxGeometry></mxCell><mxCell id="117" value="" style="edgeStyle=none;shape=connector;rounded=1;html=1;labelBackgroundColor=default;strokeColor=default;fontFamily=Helvetica;fontSize=16;fontColor=default;startArrow=none;startFill=0;endArrow=classic;endFill=1;" edge="1" parent="1" source="92" target="113"><mxGeometry relative="1" as="geometry"/></mxCell><mxCell id="92" value="Pizzaria Ital" style="rounded=0;whiteSpace=wrap;html=1;strokeColor=#14161a;strokeWidth=2;fontFamily=Helvetica;fontSize=20;fontColor=default;" vertex="1" parent="1"><mxGeometry x="70" y="1430" width="120" height="60" as="geometry"/></mxCell><mxCell id="93" value="Cliente" style="rounded=0;whiteSpace=wrap;html=1;strokeColor=#14161a;strokeWidth=2;fontFamily=Helvetica;fontSize=20;fontColor=default;" vertex="1" parent="1"><mxGeometry x="800" y="1430" width="120" height="60" as="geometry"/></mxCell><mxCell id="109" value="" style="edgeStyle=none;shape=connector;rounded=1;html=1;labelBackgroundColor=default;strokeColor=default;fontFamily=Helvetica;fontSize=16;fontColor=default;startArrow=none;startFill=0;endArrow=classic;endFill=1;" edge="1" parent="1" source="108" target="94"><mxGeometry relative="1" as="geometry"/></mxCell><mxCell id="94" value="Entregador" style="rounded=0;whiteSpace=wrap;html=1;strokeColor=#14161a;strokeWidth=2;fontFamily=Helvetica;fontSize=20;fontColor=default;" vertex="1" parent="1"><mxGeometry x="395" y="1810" width="120" height="60" as="geometry"/></mxCell><mxCell id="95" value="Encomenda" style="rounded=0;whiteSpace=wrap;html=1;strokeColor=#14161a;strokeWidth=2;fontFamily=Helvetica;fontSize=20;fontColor=default;" vertex="1" parent="1"><mxGeometry x="440" y="1430" width="120" height="60" as="geometry"/></mxCell><mxCell id="96" value="Pagamento" style="rounded=0;whiteSpace=wrap;html=1;strokeColor=#14161a;strokeWidth=2;fontFamily=Helvetica;fontSize=20;fontColor=default;" vertex="1" parent="1"><mxGeometry x="60" y="1810" width="120" height="60" as="geometry"/></mxCell><mxCell id="97" value="Produto" style="rounded=0;whiteSpace=wrap;html=1;strokeColor=#14161a;strokeWidth=2;fontFamily=Helvetica;fontSize=20;fontColor=default;" vertex="1" parent="1"><mxGeometry x="830" y="1790" width="120" height="60" as="geometry"/></mxCell><mxCell id="100" style="edgeStyle=none;shape=connector;rounded=1;html=1;entryX=0;entryY=0.5;entryDx=0;entryDy=0;labelBackgroundColor=default;strokeColor=default;fontFamily=Helvetica;fontSize=16;fontColor=default;startArrow=none;startFill=0;endArrow=classic;endFill=1;" edge="1" parent="1" source="99" target="93"><mxGeometry relative="1" as="geometry"/></mxCell><mxCell id="101" style="edgeStyle=none;shape=connector;rounded=1;html=1;entryX=1;entryY=0.5;entryDx=0;entryDy=0;labelBackgroundColor=default;strokeColor=default;fontFamily=Helvetica;fontSize=16;fontColor=default;startArrow=none;startFill=0;endArrow=classic;endFill=1;" edge="1" parent="1" source="99" target="95"><mxGeometry relative="1" as="geometry"/></mxCell><mxCell id="99" value="&lt;font style=&quot;font-size: 16px;&quot;&gt;É realizada&lt;/font&gt;" style="rhombus;whiteSpace=wrap;html=1;strokeColor=#14161a;strokeWidth=2;fontFamily=Helvetica;fontSize=20;fontColor=default;" vertex="1" parent="1"><mxGeometry x="630" y="1410" width="100" height="100" as="geometry"/></mxCell><mxCell id="106" style="edgeStyle=none;shape=connector;rounded=1;html=1;entryX=0.25;entryY=0;entryDx=0;entryDy=0;labelBackgroundColor=default;strokeColor=default;fontFamily=Helvetica;fontSize=16;fontColor=default;startArrow=none;startFill=0;endArrow=classic;endFill=1;" edge="1" parent="1" source="105" target="97"><mxGeometry relative="1" as="geometry"/></mxCell><mxCell id="107" style="edgeStyle=elbowEdgeStyle;shape=connector;rounded=1;html=1;entryX=0.5;entryY=1;entryDx=0;entryDy=0;labelBackgroundColor=default;strokeColor=default;fontFamily=Helvetica;fontSize=16;fontColor=default;startArrow=none;startFill=0;endArrow=classic;endFill=1;elbow=vertical;" edge="1" parent="1" source="105" target="95"><mxGeometry relative="1" as="geometry"/></mxCell><mxCell id="105" value="Guardar dados" style="rhombus;whiteSpace=wrap;html=1;strokeColor=#14161a;strokeWidth=2;fontFamily=Helvetica;fontSize=16;fontColor=default;" vertex="1" parent="1"><mxGeometry x="640" y="1610" width="130" height="80" as="geometry"/></mxCell><mxCell id="108" value="Entregue&lt;br&gt;(encomenda)" style="rhombus;whiteSpace=wrap;html=1;strokeColor=#14161a;strokeWidth=2;fontFamily=Helvetica;fontSize=16;fontColor=default;" vertex="1" parent="1"><mxGeometry x="370" y="1610" width="170" height="100" as="geometry"/></mxCell><mxCell id="116" value="" style="edgeStyle=none;shape=connector;rounded=1;html=1;labelBackgroundColor=default;strokeColor=default;fontFamily=Helvetica;fontSize=16;fontColor=default;startArrow=none;startFill=0;endArrow=classic;endFill=1;" edge="1" parent="1" source="113" target="95"><mxGeometry relative="1" as="geometry"/></mxCell><mxCell id="113" value="Recebe" style="rhombus;whiteSpace=wrap;html=1;strokeColor=#14161a;strokeWidth=2;fontFamily=Helvetica;fontSize=16;fontColor=default;" vertex="1" parent="1"><mxGeometry x="270" y="1420" width="80" height="80" as="geometry"/></mxCell><mxCell id="119" value="" style="edgeStyle=none;shape=connector;rounded=1;html=1;labelBackgroundColor=default;strokeColor=default;fontFamily=Helvetica;fontSize=16;fontColor=default;startArrow=none;startFill=0;endArrow=classic;endFill=1;" edge="1" parent="1" source="94" target="118"><mxGeometry relative="1" as="geometry"/></mxCell><mxCell id="120" value="" style="edgeStyle=none;shape=connector;rounded=1;html=1;labelBackgroundColor=default;strokeColor=default;fontFamily=Helvetica;fontSize=16;fontColor=default;startArrow=none;startFill=0;endArrow=classic;endFill=1;" edge="1" parent="1" source="118" target="96"><mxGeometry relative="1" as="geometry"/></mxCell><mxCell id="118" value="Recebe" style="rhombus;whiteSpace=wrap;html=1;strokeColor=#14161a;strokeWidth=2;fontFamily=Helvetica;fontSize=16;fontColor=default;" vertex="1" parent="1"><mxGeometry x="220" y="1800" width="130" height="80" as="geometry"/></mxCell><mxCell id="122" style="edgeStyle=none;shape=connector;rounded=1;html=1;entryX=1;entryY=0.5;entryDx=0;entryDy=0;labelBackgroundColor=default;strokeColor=default;fontFamily=Helvetica;fontSize=16;fontColor=default;startArrow=none;startFill=0;endArrow=classic;endFill=1;" edge="1" parent="1" source="121" target="97"><mxGeometry relative="1" as="geometry"/></mxCell><mxCell id="121" value="Categoria" style="ellipse;whiteSpace=wrap;html=1;strokeColor=#14161a;strokeWidth=2;fontFamily=Helvetica;fontSize=16;fontColor=default;" vertex="1" parent="1"><mxGeometry x="1080" y="1790" width="120" height="60" as="geometry"/></mxCell><mxCell id="125" value="" style="edgeStyle=none;shape=connector;rounded=1;html=1;labelBackgroundColor=default;strokeColor=#d6b656;fontFamily=Helvetica;fontSize=16;fontColor=default;startArrow=none;startFill=0;endArrow=classic;endFill=1;fillColor=#fff2cc;strokeWidth=3;" edge="1" parent="1" source="124" target="121"><mxGeometry relative="1" as="geometry"/></mxCell><mxCell id="124" value="Ex: pizza, refrigerantes, sobremesa, batatas, etc..." style="shape=note;whiteSpace=wrap;html=1;backgroundOutline=1;darkOpacity=0.05;strokeColor=#d6b656;strokeWidth=2;fontFamily=Helvetica;fontSize=16;fillColor=#fff2cc;" vertex="1" parent="1"><mxGeometry x="1270" y="1760" width="250" height="100" as="geometry"/></mxCell><mxCell id="126" value="" style="ellipse;whiteSpace=wrap;html=1;strokeColor=#14161a;strokeWidth=2;fontFamily=Helvetica;fontSize=16;fontColor=default;" vertex="1" parent="1"><mxGeometry x="910" y="1290" width="120" height="80" as="geometry"/></mxCell><mxCell id="128" value="" style="ellipse;whiteSpace=wrap;html=1;strokeColor=#14161a;strokeWidth=2;fontFamily=Helvetica;fontSize=16;fontColor=default;" vertex="1" parent="1"><mxGeometry x="1060" y="1310" width="120" height="80" as="geometry"/></mxCell><mxCell id="129" value="" style="ellipse;whiteSpace=wrap;html=1;strokeColor=#14161a;strokeWidth=2;fontFamily=Helvetica;fontSize=16;fontColor=default;" vertex="1" parent="1"><mxGeometry x="980" y="1490" width="120" height="80" as="geometry"/></mxCell><mxCell id="130" value="" style="ellipse;whiteSpace=wrap;html=1;strokeColor=#14161a;strokeWidth=2;fontFamily=Helvetica;fontSize=16;fontColor=default;" vertex="1" parent="1"><mxGeometry x="1100" y="1410" width="120" height="80" as="geometry"/></mxCell></root></mxGraphModel></diagram></mxfile>